# xmcd
# 
# Track frame offsets:
#     150
#     17737
#     37612
#     57150
#     74737
#     105902
# 
# Disc length: 2180
# 
# Revision: 2
# Processed by: cddbd v1.5.2PL0 Copyright (c) Steve Scherf et al.
# Submitted via: fre:ac v1.0.31
# 
DISCID=42088206
DTITLE=Various Artist - 蜃気楼
DYEAR=1996
DGENRE=Other
TTITLE0=長沢ゆりか - 蜃気楼
TTITLE1=長沢ゆりか - Moon
TTITLE2=長沢ゆりか - 愛が永遠を止めてゆく-eternal mix-
TTITLE3=長沢ゆりか - 蜃気楼(Karaoke)
TTITLE4=長沢ゆりか - Moon(Karaoke)
TTITLE5=a - ｴｷｽﾄﾗﾄﾗｯｸ
EXTD=YEAR: 1996 ID3G:  12
EXTT0=
EXTT1=
EXTT2=
EXTT3=
EXTT4=
EXTT5=
PLAYORDER=
